<svg xmlns="http://www.w3.org/2000/svg" xmlns:xlink="http://www.w3.org/1999/xlink" version="1.1" width="256" height="256" viewBox="0 0 256 256" xml:space="preserve">

<defs>
</defs>
<g style="stroke: none; stroke-width: 0; stroke-dasharray: none; stroke-linecap: butt; stroke-linejoin: miter; stroke-miterlimit: 10; fill: none; fill-rule: nonzero; opacity: 1;" transform="translate(1.4065934065934016 1.4065934065934016) scale(2.81 2.81)" >
	<path d="M 60.04 43.572 c -4.437 -0.715 -9.638 -1.094 -15.04 -1.094 c -5.402 0 -10.603 0.378 -15.04 1.094 c -1.636 0.264 -2.748 1.804 -2.484 3.439 c 0.238 1.474 1.512 2.522 2.958 2.522 c 0.159 0 0.319 -0.012 0.481 -0.038 c 4.127 -0.666 8.998 -1.018 14.085 -1.018 c 5.088 0 9.958 0.352 14.085 1.018 c 1.633 0.264 3.175 -0.849 3.439 -2.484 C 62.788 45.376 61.676 43.836 60.04 43.572 z" style="stroke: none; stroke-width: 1; stroke-dasharray: none; stroke-linecap: butt; stroke-linejoin: miter; stroke-miterlimit: 10; fill: rgb(0,0,0); fill-rule: nonzero; opacity: 1;" transform=" matrix(1 0 0 1 0 0) " stroke-linecap="round" />
	<path d="M 90 40.81 c 0 -12.703 -9.41 -23.085 -21.794 -24.522 c -2.83 -7.695 -9.387 -13.599 -17.47 -15.528 c -0.029 -0.007 -0.058 -0.013 -0.088 -0.02 c -1.153 -0.271 -2.336 -0.461 -3.545 -0.563 c -0.119 -0.01 -0.238 -0.019 -0.357 -0.027 C 46.169 0.108 45.588 0.08 45 0.08 s -1.169 0.028 -1.747 0.069 c -0.119 0.008 -0.239 0.017 -0.357 0.027 c -1.208 0.102 -2.391 0.292 -3.544 0.563 c -0.03 0.007 -0.059 0.013 -0.089 0.021 c -8.082 1.929 -14.639 7.833 -17.469 15.528 C 9.41 17.725 0 28.106 0 40.81 c 0 10.715 6.768 20.01 16.722 23.386 v 16.951 c 0 8.141 21.644 8.773 28.278 8.773 s 28.277 -0.633 28.277 -8.773 V 64.195 C 83.231 60.819 90 51.525 90 40.81 z M 45 83.92 c -10.785 0 -18.047 -1.536 -21.072 -2.773 c 3.025 -1.238 10.288 -2.774 21.072 -2.774 c 10.784 0 18.047 1.536 21.071 2.774 C 63.047 82.384 55.784 83.92 45 83.92 z M 73.277 57.73 v -5.125 c 0 -1.657 -1.343 -3 -3 -3 s -3 1.343 -3 3 v 22.599 C 60.364 72.652 49.393 72.372 45 72.372 c -4.393 0 -15.364 0.28 -22.278 2.832 V 52.604 c 0 -1.657 -1.343 -3 -3 -3 s -3 1.343 -3 3 v 5.125 C 10.263 54.7 6 48.206 6 40.81 c 0 -8.878 6.075 -16.257 14.386 -18.193 c -0.063 0.719 -0.102 1.444 -0.102 2.179 c 0 2.386 0.351 4.769 1.042 7.083 c 0.389 1.301 1.582 2.143 2.874 2.143 c 0.284 0 0.573 -0.041 0.859 -0.126 c 1.588 -0.474 2.49 -2.146 2.016 -3.733 c -0.524 -1.756 -0.791 -3.562 -0.791 -5.366 c 0 -1.692 0.246 -3.324 0.669 -4.884 c 0 -0.001 0 -0.001 0.001 -0.002 c 0.132 -0.49 0.286 -0.97 0.455 -1.442 c 0.014 -0.04 0.029 -0.08 0.044 -0.12 c 0.166 -0.454 0.348 -0.899 0.547 -1.334 c 0.02 -0.044 0.042 -0.086 0.063 -0.13 c 0.8 -1.714 1.852 -3.27 3.095 -4.641 c 0.116 -0.128 0.229 -0.259 0.349 -0.384 c 0.241 -0.251 0.492 -0.492 0.746 -0.729 c 0.145 -0.135 0.29 -0.269 0.439 -0.399 c 0.258 -0.226 0.52 -0.446 0.79 -0.657 c 0.154 -0.121 0.313 -0.236 0.47 -0.352 c 0.282 -0.207 0.564 -0.413 0.857 -0.604 c 0.137 -0.089 0.28 -0.169 0.419 -0.255 c 0.67 -0.413 1.364 -0.786 2.083 -1.113 c 0.076 -0.034 0.148 -0.075 0.225 -0.109 c 0.29 -0.127 0.59 -0.235 0.888 -0.347 c 0.232 -0.087 0.462 -0.177 0.698 -0.256 c 0.274 -0.091 0.552 -0.17 0.831 -0.249 c 0.28 -0.079 0.563 -0.153 0.848 -0.219 c 0.255 -0.059 0.511 -0.115 0.77 -0.163 c 0.346 -0.064 0.696 -0.115 1.049 -0.161 c 0.212 -0.027 0.423 -0.06 0.636 -0.08 C 43.83 6.115 44.411 6.08 45 6.08 s 1.17 0.035 1.745 0.088 c 0.214 0.02 0.425 0.053 0.637 0.081 c 0.352 0.045 0.702 0.096 1.048 0.16 c 0.259 0.049 0.515 0.104 0.771 0.163 c 0.285 0.066 0.567 0.14 0.846 0.218 c 0.279 0.079 0.558 0.158 0.833 0.25 c 0.235 0.078 0.464 0.168 0.694 0.254 c 0.299 0.113 0.6 0.221 0.891 0.349 c 0.068 0.03 0.132 0.066 0.2 0.096 c 0.73 0.33 1.435 0.71 2.114 1.129 c 0.136 0.084 0.276 0.162 0.41 0.25 c 0.295 0.192 0.579 0.399 0.862 0.607 c 0.156 0.115 0.313 0.228 0.465 0.348 c 0.271 0.213 0.536 0.434 0.795 0.661 c 0.147 0.129 0.29 0.26 0.433 0.393 c 0.256 0.239 0.509 0.481 0.752 0.734 c 0.117 0.122 0.227 0.25 0.341 0.375 c 1.248 1.375 2.304 2.937 3.106 4.658 c 0.018 0.039 0.038 0.076 0.055 0.115 c 0.201 0.439 0.385 0.889 0.553 1.348 c 0.013 0.034 0.025 0.068 0.037 0.102 c 0.17 0.474 0.325 0.957 0.458 1.45 c 0.001 0.002 0.002 0.004 0.002 0.007 c 0.422 1.558 0.668 3.189 0.668 4.879 c 0 1.657 1.343 3 3 3 s 3 -1.343 3 -3 c 0 -0.735 -0.039 -1.46 -0.102 -2.179 C 77.925 24.553 84 31.932 84 40.81 C 84 48.206 79.737 54.7 73.277 57.73 z" style="stroke: none; stroke-width: 1; stroke-dasharray: none; stroke-linecap: butt; stroke-linejoin: miter; stroke-miterlimit: 10; fill: rgb(0,0,0); fill-rule: nonzero; opacity: 1;" transform=" matrix(1 0 0 1 0 0) " stroke-linecap="round" />
</g>
</svg>